<svg width="89" height="59" viewBox="0 0 89 59" fill="none" xmlns="http://www.w3.org/2000/svg">
<g filter="url(#filter0_d_166_239)">
<path d="M69.1688 55H31.5785C31.57 55 31.5615 55 31.553 55C31.5445 55 31.536 55 31.5275 55H30.2927V54.9719C15.6606 54.3185 4 42.3447 4 27.6694C4 12.5751 16.3359 0.338814 31.553 0.338814C43.7496 0.338814 54.0954 8.1997 57.7219 19.0924C60.9583 16.7941 64.9163 15.4426 69.1904 15.4426C80.1308 15.4426 88.9997 24.2978 88.9997 35.2213C88.9997 45.9038 80.5178 54.6083 69.9114 54.9871V55H69.2119C69.2047 55 69.1976 55 69.1904 55C69.1832 55 69.176 55 69.1688 55Z" fill="url(#paint0_linear_166_239)"/>
</g>
<defs>
<filter id="filter0_d_166_239" x="0" y="0.338814" width="88.9998" height="58.6612" filterUnits="userSpaceOnUse" color-interpolation-filters="sRGB">
<feFlood flood-opacity="0" result="BackgroundImageFix"/>
<feColorMatrix in="SourceAlpha" type="matrix" values="0 0 0 0 0 0 0 0 0 0 0 0 0 0 0 0 0 0 127 0" result="hardAlpha"/>
<feOffset dx="-2" dy="2"/>
<feGaussianBlur stdDeviation="1"/>
<feColorMatrix type="matrix" values="0 0 0 0 0.184314 0 0 0 0 0.188235 0 0 0 0 0.223529 0 0 0 0.315913 0"/>
<feBlend mode="normal" in2="BackgroundImageFix" result="effect1_dropShadow_166_239"/>
<feBlend mode="normal" in="SourceGraphic" in2="effect1_dropShadow_166_239" result="shape"/>
</filter>
<linearGradient id="paint0_linear_166_239" x1="-16.2365" y1="23.3951" x2="10.8049" y2="83.5578" gradientUnits="userSpaceOnUse">
<stop stop-color="white"/>
<stop offset="1" stop-color="#EEEEEE"/>
</linearGradient>
</defs>
</svg>
