<svg width="20" height="22" viewBox="0 0 20 22" fill="none" xmlns="http://www.w3.org/2000/svg">
<path d="M17.5424 4.65384C17.5424 7.10945 15.5694 9.10012 13.1356 9.10012C10.7018 9.10012 8.72881 7.10945 8.72881 4.65384C8.72881 2.19822 10.7018 0.20755 13.1356 0.20755C15.5694 0.20755 17.5424 2.19822 17.5424 4.65384Z" fill="url(#paint0_linear_155_170)"/>
<path d="M6.18644 15V14.9933C2.74362 14.8379 0 11.9909 0 8.50159C0 4.91261 2.90256 2.00317 6.48305 2.00317C9.35287 2.00317 11.7872 3.87227 12.6405 6.46228C13.402 5.91577 14.3333 5.5944 15.339 5.5944C17.9132 5.5944 20 7.69991 20 10.2972C20 12.8372 18.0042 14.9069 15.5085 14.997V15H6.18644Z" fill="url(#paint1_linear_155_170)"/>
<path d="M6.18644 15V14.9933C2.74362 14.8379 0 11.9909 0 8.50159C0 4.91261 2.90256 2.00317 6.48305 2.00317C9.35287 2.00317 11.7872 3.87227 12.6405 6.46228C13.402 5.91577 14.3333 5.5944 15.339 5.5944C17.9132 5.5944 20 7.69991 20 10.2972C20 12.8372 18.0042 14.9069 15.5085 14.997V15H6.18644Z" fill="url(#paint2_linear_155_170)"/>
<path d="M6.18644 15V14.9933C2.74362 14.8379 0 11.9909 0 8.50159C0 4.91261 2.90256 2.00317 6.48305 2.00317C9.35287 2.00317 11.7872 3.87227 12.6405 6.46228C13.402 5.91577 14.3333 5.5944 15.339 5.5944C17.9132 5.5944 20 7.69991 20 10.2972C20 12.8372 18.0042 14.9069 15.5085 14.997V15H6.18644Z" fill="url(#paint3_linear_155_170)"/>
<path d="M11 20.5C11 21.3284 10.5523 22 10 22C9.44772 22 9 21.3284 9 20.5C9 19.6716 9.44772 19 10 19C10.5523 19 11 19.6716 11 20.5Z" fill="url(#paint4_linear_155_170)"/>
<path d="M7 18.5C7 19.3284 6.55228 20 6 20C5.44772 20 5 19.3284 5 18.5C5 17.6716 5.44772 17 6 17C6.55228 17 7 17.6716 7 18.5Z" fill="url(#paint5_linear_155_170)"/>
<path d="M15 18.5C15 19.3284 14.5523 20 14 20C13.4477 20 13 19.3284 13 18.5C13 17.6716 13.4477 17 14 17C14.5523 17 15 17.6716 15 18.5Z" fill="url(#paint6_linear_155_170)"/>
<defs>
<linearGradient id="paint0_linear_155_170" x1="4.4683" y1="1.08591" x2="4.4683" y2="13.1408" gradientUnits="userSpaceOnUse">
<stop stop-color="#FFC100"/>
<stop offset="1" stop-color="#FF8E00"/>
</linearGradient>
<linearGradient id="paint1_linear_155_170" x1="13.5645" y1="17.8835" x2="13.5645" y2="19.19" gradientUnits="userSpaceOnUse">
<stop stop-color="white"/>
<stop offset="1" stop-color="white"/>
</linearGradient>
<linearGradient id="paint2_linear_155_170" x1="13.5645" y1="17.8835" x2="13.5645" y2="19.19" gradientUnits="userSpaceOnUse">
<stop stop-color="white"/>
<stop offset="1" stop-color="white"/>
</linearGradient>
<linearGradient id="paint3_linear_155_170" x1="13.5645" y1="17.8835" x2="13.5645" y2="19.19" gradientUnits="userSpaceOnUse">
<stop stop-color="white"/>
<stop offset="1" stop-color="white"/>
</linearGradient>
<linearGradient id="paint4_linear_155_170" x1="13.5645" y1="17.8835" x2="13.5645" y2="19.19" gradientUnits="userSpaceOnUse">
<stop stop-color="white"/>
<stop offset="1" stop-color="white"/>
</linearGradient>
<linearGradient id="paint5_linear_155_170" x1="13.5645" y1="17.8835" x2="13.5645" y2="19.19" gradientUnits="userSpaceOnUse">
<stop stop-color="white"/>
<stop offset="1" stop-color="white"/>
</linearGradient>
<linearGradient id="paint6_linear_155_170" x1="13.5645" y1="17.8835" x2="13.5645" y2="19.19" gradientUnits="userSpaceOnUse">
<stop stop-color="white"/>
<stop offset="1" stop-color="white"/>
</linearGradient>
</defs>
</svg>
