<svg width="125" height="125" viewBox="0 0 125 125" fill="none" xmlns="http://www.w3.org/2000/svg">
<path d="M95.8167 81.25H40.5752C40.5565 81.2501 40.5378 81.2501 40.5191 81.2501C40.5004 81.2501 40.4816 81.2501 40.4629 81.25H38.6658V81.2083C17.1479 80.2374 0 62.4435 0 40.635C0 18.2038 18.141 0.0198364 40.5191 0.0198364C58.4555 0.0198364 73.6699 11.7018 79.0028 27.8893C83.7625 24.4736 89.5831 22.465 95.8687 22.465C111.958 22.465 125 35.6245 125 51.8576C125 67.7327 112.526 80.6682 96.9285 81.231V81.25H95.9207C95.9034 81.2501 95.886 81.2501 95.8687 81.2501C95.8514 81.2501 95.8341 81.2501 95.8167 81.25Z" fill="url(#paint0_linear_165_186)"/>
<path d="M95.8167 81.25H40.5752C40.5565 81.2501 40.5378 81.2501 40.5191 81.2501C40.5004 81.2501 40.4816 81.2501 40.4629 81.25H38.6658V81.2083C17.1479 80.2374 0 62.4435 0 40.635C0 18.2038 18.141 0.0198364 40.5191 0.0198364C58.4555 0.0198364 73.6699 11.7018 79.0028 27.8893C83.7625 24.4736 89.5831 22.465 95.8687 22.465C111.958 22.465 125 35.6245 125 51.8576C125 67.7327 112.526 80.6682 96.9285 81.231V81.25H95.9207C95.9034 81.2501 95.886 81.2501 95.8687 81.2501C95.8514 81.2501 95.8341 81.2501 95.8167 81.25Z" fill="url(#paint1_linear_165_186)"/>
<path d="M95.8167 81.25H40.5752C40.5565 81.2501 40.5378 81.2501 40.5191 81.2501C40.5004 81.2501 40.4816 81.2501 40.4629 81.25H38.6658V81.2083C17.1479 80.2374 0 62.4435 0 40.635C0 18.2038 18.141 0.0198364 40.5191 0.0198364C58.4555 0.0198364 73.6699 11.7018 79.0028 27.8893C83.7625 24.4736 89.5831 22.465 95.8687 22.465C111.958 22.465 125 35.6245 125 51.8576C125 67.7327 112.526 80.6682 96.9285 81.231V81.25H95.9207C95.9034 81.2501 95.886 81.2501 95.8687 81.2501C95.8514 81.2501 95.8341 81.2501 95.8167 81.25Z" fill="url(#paint2_linear_165_186)"/>
<path d="M69 115.5C69 120.747 66.0899 125 62.5 125C58.9101 125 56 120.747 56 115.5C56 110.253 58.9101 106 62.5 106C66.0899 106 69 110.253 69 115.5Z" fill="url(#paint3_linear_165_186)"/>
<path d="M44 103.5C44 108.747 41.0899 113 37.5 113C33.9101 113 31 108.747 31 103.5C31 98.2533 33.9101 94 37.5 94C41.0899 94 44 98.2533 44 103.5Z" fill="url(#paint4_linear_165_186)"/>
<path d="M94 103.5C94 108.747 91.0899 113 87.5 113C83.9101 113 81 108.747 81 103.5C81 98.2533 83.9101 94 87.5 94C91.0899 94 94 98.2533 94 103.5Z" fill="url(#paint5_linear_165_186)"/>
<defs>
<linearGradient id="paint0_linear_165_186" x1="84.6693" y1="99.5955" x2="84.6693" y2="107.87" gradientUnits="userSpaceOnUse">
<stop stop-color="white"/>
<stop offset="1" stop-color="white"/>
</linearGradient>
<linearGradient id="paint1_linear_165_186" x1="84.6693" y1="99.5955" x2="84.6693" y2="107.87" gradientUnits="userSpaceOnUse">
<stop stop-color="white"/>
<stop offset="1" stop-color="white"/>
</linearGradient>
<linearGradient id="paint2_linear_165_186" x1="84.6693" y1="99.5955" x2="84.6693" y2="107.87" gradientUnits="userSpaceOnUse">
<stop stop-color="white"/>
<stop offset="1" stop-color="white"/>
</linearGradient>
<linearGradient id="paint3_linear_165_186" x1="84.6693" y1="99.5955" x2="84.6693" y2="107.87" gradientUnits="userSpaceOnUse">
<stop stop-color="white"/>
<stop offset="1" stop-color="white"/>
</linearGradient>
<linearGradient id="paint4_linear_165_186" x1="84.6693" y1="99.5955" x2="84.6693" y2="107.87" gradientUnits="userSpaceOnUse">
<stop stop-color="white"/>
<stop offset="1" stop-color="white"/>
</linearGradient>
<linearGradient id="paint5_linear_165_186" x1="84.6693" y1="99.5955" x2="84.6693" y2="107.87" gradientUnits="userSpaceOnUse">
<stop stop-color="white"/>
<stop offset="1" stop-color="white"/>
</linearGradient>
</defs>
</svg>
